<svg id="Layer_3" data-name="Layer 3" xmlns="http://www.w3.org/2000/svg" viewBox="0 0 228.45 53"><defs><style>.cls-1{fill:#fff;}.cls-2{fill:#9a9a9a;}.cls-3{fill:#a3a6a8;}.cls-4{fill:#00425e;}.cls-5{fill:none;}.cls-6{fill:#b5221d;}.cls-7{fill:#f05c22;}.cls-8{fill:#d9471f;}</style></defs><title>hsbcadlogo</title><polygon class="cls-1" points="190.91 53 0 53 0 0 228.45 0 190.91 53"/><path class="cls-2" d="M162.05,38.54a23.9,23.9,0,0,0,7.29-1V13.63l-2.72,1.89v7.57L166.5,23a10.51,10.51,0,0,0-4-.77c-5.12,0-7.72,2.63-7.72,7.81C154.78,35.69,157.23,38.54,162.05,38.54Zm.47-14a9.23,9.23,0,0,1,4,.86l.05,0v10.2l-.06,0a12.25,12.25,0,0,1-4,.62c-3.36,0-5.06-2.14-5.06-6.35C157.46,26.39,159.16,24.58,162.52,24.58Z"/><path class="cls-3" d="M137.05,38.07a19.19,19.19,0,0,1-4.39.47q-8.79,0-8.79-8.54,0-7.92,8.79-7.92a19.19,19.19,0,0,1,4.39.47V24.9a19.94,19.94,0,0,0-4.55-.47c-3.82,0-5.73,1.85-5.73,5.57q0,6.2,5.73,6.19a20.52,20.52,0,0,0,4.55-.47Z"/><path class="cls-3" d="M138.84,33.42q0-5.07,6.68-5.07a29.53,29.53,0,0,1,4.3.32V27.11q0-2.84-4.44-2.84a18.57,18.57,0,0,0-5.21.79V22.71a18.22,18.22,0,0,1,5.21-.79q7.34,0,7.34,5.11V38.39h-1.63l-1-1.63a9.5,9.5,0,0,1-5.37,1.63Q138.84,38.39,138.84,33.42Zm6.68-2.72q-3.78,0-3.78,2.67c0,1.78,1,2.67,3,2.67a8.17,8.17,0,0,0,5.1-1.6V31A29.53,29.53,0,0,0,145.52,30.7Z"/><path class="cls-4" d="M83,22.22c-2,0-3.61.69-4.88.8V13.64L74,16.47V38.39h4.08V27.1A6,6,0,0,1,82,25.51a2.36,2.36,0,0,1,2.66,2.68v10.2h4.08V28.19Q88.74,22.22,83,22.22Z"/><path class="cls-4" d="M99.36,28.61H96.74q-1.92,0-1.92-1.62c0-1.13,1.1-1.69,3.31-1.69A15.61,15.61,0,0,1,104,26.38V23a17.49,17.49,0,0,0-5.74-.93q-7.2,0-7.2,5.09C91,30.38,92.69,32,96,32H98.9q1.77,0,1.77,1.62c0,1.12-.88,1.69-2.63,1.69a16.7,16.7,0,0,1-6.23-1.08v3.39a18.56,18.56,0,0,0,6.07.92q6.87,0,6.87-5.08Q104.75,28.62,99.36,28.61Z"/><path class="cls-4" d="M115,22.22a7.15,7.15,0,0,0-4.08,1.23V13.63l-4.08,2.83V37.73a42.36,42.36,0,0,0,7.16.66q7.9,0,7.9-8.41Q121.88,22.23,115,22.22Zm-.83,12.87a10.69,10.69,0,0,1-3.25-.44V26.44a8.34,8.34,0,0,1,3.76-.83c2.12,0,3.19,1.42,3.19,4.26Q117.85,35.09,114.15,35.09Z"/><polygon class="cls-5" points="55.76 27.42 54.71 30.34 58.63 30.88 62.03 32.3 62.29 28.64 59.79 22.98 55.76 27.42"/><polygon class="cls-6" points="58.63 30.88 56.37 38.41 61.41 38.41 61.59 38.41 62.03 32.3 58.63 30.88"/><path class="cls-6" d="M62.29,28.64l7.14.13s-4.1-12.23-4-12.36L59.79,23Z"/><polygon class="cls-7" points="56.92 17.3 47.7 28.77 55.76 27.42 59.79 22.98 65.44 16.41 56.92 17.3"/><polygon class="cls-8" points="62.29 28.64 62.03 32.3 61.59 38.41 69.43 28.77 62.29 28.64"/><polygon class="cls-8" points="54.71 30.34 48.78 34.49 56.37 38.41 58.63 30.88 54.71 30.34"/><polygon class="cls-6" points="55.76 27.42 47.7 28.77 48.78 34.49 54.71 30.34 55.76 27.42"/><polygon class="cls-4" points="228.45 0 228.45 53 190.91 53 228.45 0"/></svg>